<?xml version="1.0" encoding="utf-8"?>
<!-- Generator: Adobe Illustrator 15.1.0, SVG Export Plug-In . SVG Version: 6.00 Build 0)  -->
<!DOCTYPE svg PUBLIC "-//W3C//DTD SVG 1.1//EN" "http://www.w3.org/Graphics/SVG/1.1/DTD/svg11.dtd">
<svg version="1.1" id="Capa_1" xmlns="http://www.w3.org/2000/svg" xmlns:xlink="http://www.w3.org/1999/xlink" x="0px" y="0px"
	 width="595.276px" height="841.89px" viewBox="0 0 595.276 841.89" enable-background="new 0 0 595.276 841.89"
	 xml:space="preserve">
<g>
	<defs>
		<rect id="SVGID_1_" width="595.276" height="841.89"/>
	</defs>
	<clipPath id="SVGID_2_">
		<use xlink:href="#SVGID_1_"  overflow="visible"/>
	</clipPath>
	<path clip-path="url(#SVGID_2_)" fill="#EFDD3A" d="M580.212,673.233c-188.838,0-377.674-0.016-566.51,0.106
		c-3.904,0.003-4.682-0.775-4.68-4.68c0.123-188.836,0.107-377.673,0.107-566.51c-0.085-4.489,2.06-5.416,6.453-5.413
		c187.921,0.141,375.842,0.118,563.764,0.133c6.986,0,6.146-0.849,6.146,6.14c0.015,187.921-0.008,375.842,0.132,563.765
		C585.627,671.16,584.712,673.322,580.212,673.233"/>
	<path clip-path="url(#SVGID_2_)" fill="#F7EF83" d="M580.212,673.233c4.385-0.703,4.904-3.503,4.902-7.479
		c-0.101-187.284-0.087-374.568-0.089-561.852c0-6.556-0.009-6.565-6.564-6.565c-187.284-0.002-374.568,0.011-561.853-0.089
		c-3.976-0.002-6.776,0.518-7.48,4.902c-1.087-4.939,0.838-5.919,5.779-5.914c188.916,0.161,377.832,0.148,566.748,0.046
		c3.611-0.002,4.426,0.813,4.424,4.424c-0.102,188.916-0.114,377.832,0.048,566.749
		C586.131,672.395,585.151,674.321,580.212,673.233"/>
	<path clip-path="url(#SVGID_2_)" fill="#1A1912" d="M179.788,572.507c18.636-32.312,37.265-64.611,55.897-96.909
		c7.837-13.585,15.768-27.116,23.457-40.783c1.67-2.969,2.822-3.523,6.148-1.92c21.37,10.298,42.867,10.314,64.195-0.267
		c2.5-1.239,3.754-1.153,5.26,1.472c26.054,45.388,52.19,90.729,78.416,136.019c1.329,2.295,0.979,3.023-1.183,4.218
		c-36.964,20.44-76.481,30.438-118.768,29.722c-38.857-0.658-75.202-10.515-109.319-28.932c-0.984-0.53-1.976-1.052-2.935-1.627
		C180.553,573.257,180.226,572.885,179.788,572.507"/>
	<path clip-path="url(#SVGID_2_)" fill="#1A1912" d="M144.175,368.913c-25.836,0-51.672-0.037-77.508,0.052
		c-2.86,0.01-4.184-0.313-4.086-3.782c1.382-48.528,15.468-92.864,43.651-132.51c18.912-26.606,42.416-48.33,70.347-65.293
		c2.988-1.815,4.057-1.311,5.683,1.517c25.838,44.953,51.752,89.862,77.78,134.704c1.742,3.001,1.063,4.082-1.564,5.869
		c-19.496,13.265-30.318,31.685-31.826,55.298c-0.215,3.371-1.209,4.232-4.488,4.216
		C196.167,368.857,170.171,368.913,144.175,368.913"/>
	<path clip-path="url(#SVGID_2_)" fill="#1A1912" d="M450.677,369.321c-25.666,0-51.332-0.044-76.997,0.053
		c-3.376,0.012-4.981-0.394-5.251-4.546c-1.527-23.404-12.351-41.706-31.666-54.875c-2.917-1.989-3.286-3.118-1.47-6.244
		c26.033-44.817,51.918-89.721,77.756-134.651c1.512-2.629,2.601-3.021,5.306-1.331c61.279,38.289,98.51,92.786,110.938,164.083
		c1.875,10.753,2.638,21.594,3.159,32.488c0.195,4.057-0.685,5.143-4.779,5.115C502.009,369.231,476.343,369.321,450.677,369.321"/>
	<path clip-path="url(#SVGID_2_)" fill="#1A1912" d="M297.774,322.289c26.438,0.62,47.124,22.091,46.43,48.192
		c-0.697,26.207-22.188,46.263-48.903,45.637c-25.257-0.592-45.975-22.495-45.259-47.849
		C250.772,342.406,272.277,321.69,297.774,322.289"/>
	<path clip-path="url(#SVGID_2_)" fill="none" stroke="#EFDD3A" stroke-width="4" stroke-miterlimit="10" d="M100.288,330.7
		c20.537-36.652,40.974-73.125,61.611-109.956c20.501,36.717,40.89,73.233,61.395,109.956H100.288z"/>
	<path clip-path="url(#SVGID_2_)" fill="none" stroke="#EFDD3A" stroke-width="4" stroke-miterlimit="10" d="M161.946,223.47
		c5.521,9.906,10.839,19.454,16.164,28.997c2.131,3.818,4.254,7.641,6.438,11.427c0.58,1.006,0.7,1.783,0.072,2.884
		c-3.529,6.184-6.979,12.416-10.403,18.663c-0.468,0.853-1.02,1.096-1.904,1.094c-8.993-0.022-17.987-0.027-26.98,0.007
		c-0.981,0.004-1.582-0.319-2.058-1.195c-2.447-4.503-4.909-8.998-7.424-13.46c-0.583-1.036-0.149-1.782,0.313-2.606
		c3.639-6.481,7.278-12.962,10.913-19.446c4.519-8.064,9.033-16.132,13.555-24.195C160.989,225.002,161.388,224.388,161.946,223.47z
		"/>
	<path clip-path="url(#SVGID_2_)" fill="none" stroke="#EFDD3A" stroke-width="4" stroke-miterlimit="10" d="M213.854,316.477
		c-2.68,0-4.943,0.092-7.195-0.033c-1.462-0.08-2.217,0.523-2.817,1.828c-1.519,3.303-3.184,6.535-4.719,9.83
		c-0.43,0.924-0.953,1.279-1.959,1.276c-10.774-0.034-21.549-0.039-32.323-0.001c-1.468,0.006-1.518-0.441-0.87-1.606
		c4.615-8.307,9.213-16.623,13.772-24.962c0.596-1.09,1.431-1.176,2.459-1.173c7.652,0.021,15.307,0.117,22.955-0.065
		c1.856-0.045,2.737,0.441,3.585,2.078C208.923,307.857,211.321,311.946,213.854,316.477z"/>
	<path clip-path="url(#SVGID_2_)" fill="none" stroke="#EFDD3A" stroke-width="4" stroke-miterlimit="10" d="M134.627,272.394
		c2.143,3.863,4.167,7.514,6.194,11.163c2.823,5.084,5.619,10.183,8.492,15.237c0.779,1.37,0.713,2.405,0.11,3.957
		c-1.786,4.594-4.596,6.174-9.502,5.846c-7.866-0.525-15.788-0.165-23.687-0.119c-1.464,0.009-1.931-0.207-1.053-1.725
		c2.409-4.165,4.743-8.376,7.049-12.602c0.547-1.002,1.296-1.167,2.282-1.162c5.082,0.028,10.164,0.025,15.245-0.005
		c0.529-0.003,1.478,0.362,1.463-0.567c-0.013-0.875-0.945-0.569-1.497-0.572c-4.837-0.023-9.674-0.047-14.511,0.007
		c-1.416,0.016-1.532-0.276-0.815-1.529c3.072-5.37,6.045-10.801,9.067-16.202C133.758,273.595,134.136,273.118,134.627,272.394z"/>
	<path clip-path="url(#SVGID_2_)" fill="none" stroke="#EFDD3A" stroke-width="4" stroke-miterlimit="10" d="M129.808,309.634
		c4.708,0,9.419,0.083,14.124-0.045c1.639-0.045,2.566,0.485,3.316,1.955c1.732,3.396,3.646,6.692,5.392,10.08
		c0.506,0.981,1.086,1.334,2.141,1.31c2.934-0.066,5.87,0.012,8.804-0.039c1.225-0.021,1.389,0.398,0.811,1.415
		c-0.739,1.303-1.451,2.624-2.149,3.951c-0.426,0.811-1.036,1.114-1.938,1.111c-7.582-0.027-15.165-0.025-22.747-0.005
		c-0.84,0.003-1.543-0.28-2.237-0.705c-7.656-4.697-15.299-9.418-22.994-14.047c-1.085-0.652-0.801-1.045-0.436-1.995
		c0.918-2.385,2.363-3.203,4.892-3.055C121.115,309.816,125.466,309.634,129.808,309.634z"/>
	<path clip-path="url(#SVGID_2_)" fill="none" stroke="#EFDD3A" stroke-width="4" stroke-miterlimit="10" d="M186.095,266.753
		c2.578,4.613,4.983,8.914,7.385,13.216c0.945,1.691,1.864,3.398,2.834,5.074c0.632,1.092,0.486,1.523-0.85,1.5
		c-3.488-0.06-6.978-0.044-10.466,0.002c-0.572,0.008-1.642-0.431-1.6,0.602c0.037,0.953,1.086,0.519,1.675,0.525
		c3.794,0.043,7.59,0.044,11.385,0.006c0.949-0.009,1.559,0.233,2.055,1.165c1.761,3.312,3.606,6.578,5.461,9.835
		c0.588,1.034,0.66,1.523-0.771,1.514c-6.61-0.044-13.221-0.032-19.832-0.007c-0.838,0.003-1.318-0.301-1.741-1.057
		c-2.077-3.707-4.204-7.385-6.342-11.056c-0.332-0.571-0.571-0.997-0.175-1.699C178.738,279.955,182.32,273.512,186.095,266.753z"/>
	<path clip-path="url(#SVGID_2_)" fill="none" stroke="#EFDD3A" stroke-width="4" stroke-miterlimit="10" d="M176.947,301.647
		c-2.644,4.781-5.145,9.304-7.649,13.826c-0.696,1.257-1.556,2.448-2.061,3.782c-0.756,1.995-1.937,2.722-4.036,2.538
		c-2.491-0.219-5.015-0.084-7.523-0.035c-0.945,0.018-1.593-0.207-2.084-1.131c-1.908-3.588-3.877-7.142-5.846-10.695
		c-0.339-0.613-0.408-1.16,0.005-1.745c0.107-0.152,0.163-0.341,0.264-0.497c1.255-1.929,1.776-4.775,3.655-5.729
		c1.784-0.906,4.305-0.301,6.502-0.308c5.569-0.018,11.138-0.006,16.707-0.006C175.472,301.647,176.063,301.647,176.947,301.647z"/>
	<path clip-path="url(#SVGID_2_)" fill="none" stroke="#EFDD3A" stroke-width="4" stroke-miterlimit="10" d="M180.718,300.172
		h-18.147c-2.998,0-6.003-0.117-8.992,0.047c-1.595,0.088-2.433-0.519-3.146-1.882c-1.651-3.158-3.353-6.291-5.163-9.354
		c-0.757-1.282-0.227-1.298,0.784-1.296c8.75,0.012,17.5,0.006,26.25,0.008c0.608,0,1.256-0.09,1.636,0.576
		C176.133,292.114,178.32,295.96,180.718,300.172z"/>
	<path clip-path="url(#SVGID_2_)" fill="none" stroke="#EFDD3A" stroke-width="4" stroke-miterlimit="10" d="M210.4,329.357
		c-2.999,0-5.998-0.024-8.997,0.013c-1.016,0.012-1.36-0.239-0.843-1.284c1.499-3.032,2.977-6.075,4.419-9.135
		c0.38-0.807,0.916-1.039,1.743-1.022c2.264,0.045,4.53,0.057,6.793-0.006c0.868-0.024,1.358,0.35,1.752,1.062
		c1.634,2.953,3.257,5.912,4.934,8.839c0.764,1.332,0.27,1.573-0.988,1.55C216.276,329.321,213.338,329.357,210.4,329.357z"/>
	<path clip-path="url(#SVGID_2_)" fill="none" stroke="#EFDD3A" stroke-width="4" stroke-miterlimit="10" d="M133.249,329.353
		c-4.564,0-9.128-0.013-13.692,0.011c-0.902,0.005-1.489-0.573-2.071-1.083c-2.929-2.564-5.806-5.192-8.722-7.773
		c-0.604-0.535-0.704-0.977-0.324-1.762c1.844-3.81,1.832-3.854,5.34-1.719c6.515,3.966,13.009,7.97,19.512,11.958
		C133.276,329.108,133.263,329.231,133.249,329.353z"/>
	<path clip-path="url(#SVGID_2_)" fill="none" stroke="#EFDD3A" stroke-width="4" stroke-miterlimit="10" d="M116.074,329.352
		c-4.132,0-8.265-0.001-12.397,0.001c-0.846,0.001-0.924-0.407-0.552-1.067c1.225-2.175,2.451-4.351,3.678-6.525
		c0.221-0.39,0.444-0.834,0.963-0.374c2.839,2.515,5.672,5.037,8.507,7.556C116.207,329.079,116.14,329.216,116.074,329.352z"/>
	<path clip-path="url(#SVGID_2_)" fill="#EFDD3A" d="M513.732,313.172c-1.982,3.918-3.266,8.15-6.303,11.574
		c-5.332,6.01-11.955,9.307-19.854,9.378c-21.086,0.188-42.175,0.128-63.262,0.036c-10.479-0.045-19.374-8.358-20.578-18.899
		c-1.111-9.73,5.545-19.59,15.24-22.164c2.155-0.572,2.598-1.403,2.58-3.484c-0.122-14.47,10.131-26.793,24.429-29.567
		c13.812-2.679,27.586,4.953,33.027,18.387c0.712,1.758,1.321,2.836,3.619,2.461c14.288-2.327,27.035,6.131,30.444,20.059
		c0.106,0.433,0.162,0.852,0.656,1.012V313.172z"/>
	<path clip-path="url(#SVGID_2_)" fill="#EFDD3A" d="M365.331,272.96c0.82-0.282,1.155-1.33,2.17-1.328
		c5.377,0.014,10.755-0.043,16.13,0.05c1.507,0.026,2.287,1.224,2.54,2.618c0.277,1.525-0.618,2.98-1.862,3.067
		c-5.879,0.409-11.785,0.784-17.654-0.189c-0.479-0.079-0.885-0.604-1.323-0.922V272.96z"/>
	<path clip-path="url(#SVGID_2_)" fill="#EFDD3A" d="M391.931,274.375c0.198-9.344,4.435-16.32,12.602-20.751
		c8.461-4.591,16.807-3.883,24.829,1.284c1.294,0.833,2.576,1.803,2.996,3.372c0.351,1.314-0.397,2.355-1.434,3.068
		c-1.488,1.025-2.955,0.568-4.221-0.453c-4.504-3.629-9.616-4.622-15.121-3.269c-7.337,1.802-11.798,6.821-13.121,13.983
		c-1.229,6.651,1.094,12.504,6.58,16.825c1.993,1.57,4.951,2.75,2.93,6.126c-1.171,1.958-3.998,1.377-7.135-1.264
		C394.967,288.355,391.869,282.132,391.931,274.375"/>
	<path clip-path="url(#SVGID_2_)" fill="#EFDD3A" d="M419.006,234.778c0,2.297,0.038,4.595-0.012,6.891
		c-0.042,1.898-1.041,3.17-2.951,3.287c-2.064,0.127-3.383-1.077-3.428-3.118c-0.108-4.915-0.116-9.835,0.008-14.749
		c0.048-1.888,1.32-2.923,3.27-2.962c2.11-0.041,2.942,1.313,3.036,3.109c0.13,2.508,0.032,5.027,0.032,7.542
		C418.977,234.778,418.991,234.778,419.006,234.778"/>
	<path clip-path="url(#SVGID_2_)" fill="#EFDD3A" d="M452.347,240.943c0.109,1.307-0.519,2.308-1.384,3.179
		c-2.924,2.945-5.844,5.894-8.807,8.799c-1.615,1.584-3.534,2.562-5.453,0.703c-2.078-2.014-0.641-3.726,0.928-5.283
		c3.099-3.078,6.178-6.177,9.279-9.253c1.111-1.103,2.406-1.433,3.883-0.764C451.92,238.835,452.414,239.723,452.347,240.943"/>
	<path clip-path="url(#SVGID_2_)" fill="#EFDD3A" d="M392.601,294.714c2.359-0.054,4.201,2.269,2.881,4.14
		c-3.28,4.649-7.429,8.567-11.928,12.047c-1.247,0.964-2.777,0.416-3.779-0.842c-0.91-1.142-1.046-2.594-0.075-3.614
		c3.619-3.805,7.383-7.472,11.08-11.203C391.308,294.709,391.942,294.713,392.601,294.714"/>
	<path clip-path="url(#SVGID_2_)" fill="#EFDD3A" d="M382.291,238.004c1.077-0.096,1.9,0.623,2.688,1.413
		c3.103,3.105,6.211,6.203,9.302,9.319c1.435,1.446,2.41,3.109,0.649,4.853c-1.804,1.786-3.555,1.023-5.138-0.576
		c-3.165-3.197-6.341-6.385-9.557-9.53c-1.188-1.163-1.357-2.424-0.723-3.866C380.01,238.488,380.936,238.015,382.291,238.004"/>
	<path clip-path="url(#SVGID_2_)" fill="#EFDD3A" d="M429.449,340.047c2.262-0.115,3.31,0.2,3.975,1.456
		c0.669,1.263,0.382,2.423-0.458,3.326c-2.003,2.153-4.051,4.283-6.255,6.224c-1.191,1.05-2.74,1.368-4.085-0.032
		c-1.312-1.364-1.651-2.883-0.272-4.329C424.776,344.15,426.756,341.043,429.449,340.047"/>
	<path clip-path="url(#SVGID_2_)" fill="#EFDD3A" d="M460.369,354.899c0.175,0.872-0.536,1.624-1.197,2.316
		c-1.734,1.815-3.554,3.55-5.311,5.343c-1.348,1.376-2.89,1.705-4.351,0.435c-1.572-1.367-1.538-3.128-0.177-4.636
		c1.828-2.021,3.771-3.946,5.751-5.821c1.028-0.975,2.349-1.124,3.654-0.513C459.823,352.531,460.272,353.486,460.369,354.899"/>
	<path clip-path="url(#SVGID_2_)" fill="#EFDD3A" d="M489.959,342.719c0.231,1.023-0.242,1.821-0.821,2.438
		c-1.868,1.992-3.734,4.005-5.783,5.802c-1.297,1.137-2.945,1.571-4.378,0.017c-1.322-1.432-1.321-3.051-0.061-4.433
		c1.837-2.015,3.832-3.889,5.802-5.779c1.184-1.136,2.652-1.028,3.978-0.428C489.593,340.742,490.184,341.631,489.959,342.719"/>
	<path clip-path="url(#SVGID_2_)" fill="#1A1912" d="M456.081,327.694c-10.434,0-20.868,0.013-31.302-0.004
		c-8.289-0.014-14.63-6.23-14.771-14.439c-0.136-7.85,6.596-14.601,14.63-14.676c4.626-0.042,4.577-0.034,3.713-4.825
		c-2.532-14.03,7.024-27.637,23.102-27.84c12.679-0.159,20.887,8.965,22.867,18.53c1.043,5.041,1.09,4.938,6.109,3.342
		c8.18-2.602,15.464-0.823,21.364,5.327c6.121,6.38,7.559,14.013,4.062,22.139c-3.484,8.096-9.91,12.341-18.801,12.424
		C476.73,327.769,466.405,327.694,456.081,327.694"/>
	<path clip-path="url(#SVGID_2_)" fill="#EFDD3A" d="M252.185,480.591v-0.789c0.33-0.385,0.216-0.88,0.298-1.318
		c0.516-2.774,1.393-3.536,4.729-4.007c25.961,0,51.919,0,77.876-0.001c0.985,0,1.967-0.008,2.942,0.192
		c1.894,0.388,2.942,1.46,3.33,3.388c0.17,0.846,0.183,1.693,0.182,2.547c-0.001,25.104-0.002,50.207,0.003,75.311
		c0,0.987-0.021,1.965-0.313,2.923c-0.423,1.383-1.32,2.248-2.729,2.552c-0.963,0.208-1.939,0.282-2.932,0.282
		c-25.826-0.012-51.653-0.007-77.479-0.009c-4.407,0-5.708-1.325-5.708-5.807c-0.001-24.313,0.001-48.629-0.011-72.942
		C252.373,482.139,252.569,481.337,252.185,480.591"/>
	<path clip-path="url(#SVGID_2_)" fill="#1A1912" d="M296.958,556.881c-11.502,0-23.005,0.001-34.507-0.001
		c-4.327-0.001-5.543-1.229-5.544-5.613c-0.002-22.215-0.002-44.431,0.001-66.646c0-4.421,1.192-5.628,5.574-5.628
		c23.07-0.005,46.142-0.005,69.211-0.001c4.368,0.001,5.699,1.352,5.699,5.751c0,22.084-0.009,44.168,0.026,66.252
		c0.002,1.194-0.133,2.373-0.514,3.433c-0.843,2.349-2.963,2.453-5.046,2.453C320.226,556.882,308.592,556.881,296.958,556.881"/>
	<path clip-path="url(#SVGID_2_)" fill="#EFDD3A" d="M289.561,519.089c3.718,4.729,7.396,9.405,11.317,14.391
		c-3.511,0-6.743,0.013-9.974-0.01c-0.694-0.004-0.929-0.666-1.272-1.117c-2.579-3.395-5.136-6.806-7.714-10.2
		c-0.422-0.557-0.757-1.157-1.641-1.242c-2.126-0.203-2.374-0.039-2.376,2.095c-0.003,3.021-0.045,6.043,0.022,9.062
		c0.024,1.087-0.258,1.499-1.405,1.446c-1.966-0.09-3.941-0.062-5.909-0.009c-0.868,0.024-1.116-0.271-1.114-1.124
		c0.024-10.507,0.02-21.014,0.008-31.521c-0.001-0.75,0.081-1.249,1.041-1.223c5.444,0.152,10.902-0.302,16.335,0.256
		c4.657,0.479,7.902,2.902,8.769,6.367c1.176,4.698-0.421,8.981-4.38,11.724C290.737,518.352,290.184,518.687,289.561,519.089"/>
	<path clip-path="url(#SVGID_2_)" fill="#EFDD3A" d="M310.717,510.627c2.483-1.834,4.375-3.253,6.786-3.58
		c5.178-0.703,8.966,2.159,9.235,7.469c0.301,5.962,0.138,11.946,0.197,17.921c0.008,0.723-0.174,1.144-0.981,1.054
		c-0.194-0.021-0.394,0.002-0.591-0.001c-2.091-0.039-4.843,0.709-6.091-0.337c-1.297-1.088-0.335-3.938-0.388-6.016
		c-0.079-3.15-0.003-6.306-0.12-9.455c-0.056-1.495-0.197-3.123-1.997-3.715c-1.885-0.62-3.605-0.129-5.233,0.903
		c-0.725,0.458-0.531,1.14-0.532,1.766c-0.014,5.123-0.051,10.247,0.023,15.37c0.019,1.243-0.343,1.58-1.542,1.508
		c-2.087-0.127-4.818,0.681-6.1-0.358c-1.333-1.082-0.383-3.925-0.402-5.992c-0.057-5.911,0.016-11.823-0.048-17.734
		c-0.014-1.263,0.288-1.755,1.614-1.641c1.369,0.118,2.763,0.109,4.135,0.005C310.37,507.665,311.629,507.828,310.717,510.627"/>
	<path clip-path="url(#SVGID_2_)" fill="#EFDD3A" d="M263.095,547.05c-1.626-1.794-1.798-3.132-0.592-4.325
		c1.384-1.368,4.897-1.383,6.167,0.049c1.34,1.512,0.543,2.752-0.689,3.848c1.89,1.865,2.129,3.585,0.707,4.883
		c-1.54,1.406-5.282,1.315-6.568-0.16C261.007,550.068,261.309,548.601,263.095,547.05"/>
	<path clip-path="url(#SVGID_2_)" fill="#EFDD3A" d="M273.375,545.867c3.814-0.729,5.45,0.379,5.268,3.307
		c-0.096,1.548-0.896,2.661-2.317,3.077c-1.606,0.471-3.282,0.485-4.529-0.952c-1.284-1.479-1.408-5.048-0.301-7.112
		c1.112-2.073,2.981-2.517,5.144-2.472c0.969,0.021,1.261,0.376,1.202,1.285c-0.076,1.168-0.751,0.497-1.231,0.449
		C274.927,543.281,273.893,544.006,273.375,545.867"/>
	<path clip-path="url(#SVGID_2_)" fill="#EFDD3A" d="M309.278,485.226c-0.641-1.825,0.161-2.597,1.875-2.678
		c1.706-0.082,3.529-0.339,4.519,1.558c0.98,1.881,0.056,3.411-1.099,4.84c-0.609,0.757-1.267,1.476-1.976,2.297
		c0.891,0,1.9,0.01,2.909-0.004c0.59-0.009,0.997,0.072,0.983,0.84c-0.013,0.769-0.448,0.83-1.019,0.829
		c-1.775-0.003-3.55,0.016-5.324-0.01c-0.416-0.007-0.981,0.232-1.198-0.363c-0.223-0.615-0.02-1.129,0.483-1.569
		c0.938-0.82,1.888-1.636,2.747-2.536c0.876-0.916,1.792-2.045,0.885-3.294c-0.879-1.212-2.125-0.526-3.219-0.056
		C309.676,485.154,309.483,485.174,309.278,485.226"/>
	<path clip-path="url(#SVGID_2_)" fill="#EFDD3A" d="M321.232,491.244c1.368,0,2.39,0.021,3.408-0.009
		c0.66-0.02,0.94,0.201,0.92,0.904c-0.023,0.803-0.546,0.765-1.075,0.767c-1.773,0.006-3.549,0.017-5.322-0.007
		c-0.415-0.006-0.983,0.212-1.156-0.422c-0.146-0.53-0.051-1.008,0.407-1.414c0.98-0.87,1.958-1.751,2.879-2.684
		c0.856-0.868,1.664-1.957,0.925-3.141c-0.812-1.301-2.07-0.675-3.177-0.218c-0.229,0.094-0.474,0.152-0.832,0.266
		c0.114-0.901-0.551-1.953,0.561-2.354c1.694-0.612,3.503-0.85,5.127,0.198c1.169,0.755,1.463,2.002,1.137,3.315
		C324.538,488.446,322.967,489.68,321.232,491.244"/>
	<path clip-path="url(#SVGID_2_)" fill="#EFDD3A" d="M330.816,491.242c0.829,0,1.796-0.002,2.763,0.001
		c0.525,0.001,1.033-0.061,1.059,0.754c0.026,0.891-0.489,0.917-1.127,0.914c-1.768-0.009-3.535,0.011-5.302-0.011
		c-0.418-0.005-0.979,0.194-1.142-0.441c-0.136-0.532-0.024-1.006,0.429-1.403c0.933-0.82,1.872-1.639,2.733-2.53
		c0.922-0.954,1.938-2.099,0.953-3.423c-0.877-1.181-2.13-0.482-3.217-0.009c-0.167,0.072-0.363,0.081-0.543,0.119
		c-0.646-1.831,0.188-2.584,1.89-2.665c1.7-0.081,3.516-0.332,4.502,1.55c0.979,1.868,0.072,3.396-1.08,4.825
		C332.12,489.685,331.487,490.432,330.816,491.242"/>
	<path clip-path="url(#SVGID_2_)" fill="#1A1912" d="M277.899,510.36c0-0.066-0.01-0.134,0.002-0.196
		c0.267-1.415-0.758-3.812,0.5-4.096c2.437-0.553,5.299-0.889,7.571,0.865c2.358,1.822,1.295,6.429-1.621,7.442
		c-0.305,0.106-0.64,0.121-0.958,0.193C278.19,515.748,277.899,515.525,277.899,510.36"/>
	<path clip-path="url(#SVGID_2_)" fill="#1A1912" d="M267.123,549.495c-0.057,0.804-0.635,1.241-1.388,1.289
		c-1.069,0.068-1.725-0.523-1.737-1.623c-0.007-0.638,0.069-1.351,0.952-1.408C265.696,547.703,267.086,548.812,267.123,549.495"/>
	<path clip-path="url(#SVGID_2_)" fill="#1A1912" d="M266.821,544.732c-0.032,0.524-0.021,1.283-0.82,1.146
		c-0.714-0.124-1.617-0.335-1.696-1.341c-0.058-0.75,0.53-1.066,1.123-1.103C266.22,543.387,266.823,543.745,266.821,544.732"/>
	<path clip-path="url(#SVGID_2_)" fill="#1A1912" d="M273.324,548.477c-0.091-0.98,0.408-1.272,1.308-1.226
		c1.131,0.059,1.486,0.868,1.49,1.729c0.003,0.844-0.324,1.888-1.404,1.769C273.505,550.615,273.407,549.472,273.324,548.477"/>
</g>
</svg>
